# xmcd
#
# Track frame offsets: 
#        150
#        19352
#        37177
#        57519
#        73700
#
# Disc length: 1249 seconds
#
# Revision: 0
# Processed by: cddbd v1.5.2PL0 Copyright (c) Steve Scherf et al.
# Submitted via: ExactAudioCopyFreeDBPlugin 1.0
#
DISCID=4904df05
DTITLE=Ray Goren - Songs For You
DYEAR=2015
DGENRE=Blues
TTITLE0=Those Days
TTITLE1=Light My Fire
TTITLE2=Down and Out
TTITLE3=Song For Me
TTITLE4=It's On You
EXTD=
EXTT0=
EXTT1=
EXTT2=
EXTT3=
EXTT4=
PLAYORDER=
